<?xml version="1.0" standalone="no"?>
<!DOCTYPE svg PUBLIC "-//W3C//DTD SVG 20010904//EN"
 "http://www.w3.org/TR/2001/REC-SVG-20010904/DTD/svg10.dtd">
<svg version="1.0" xmlns="http://www.w3.org/2000/svg"
 width="512.000000pt" height="512.000000pt" viewBox="0 0 512.000000 512.000000"
 preserveAspectRatio="xMidYMid meet">

<g transform="translate(0.000000,512.000000) scale(0.100000,-0.100000)"
fill="#000000" stroke="none">
<path d="M640 5105 c-252 -52 -454 -211 -564 -446 -77 -162 -71 19 -71 -2099
0 -2118 -6 -1937 71 -2099 102 -217 277 -366 511 -433 l78 -23 1895 0 1895 0
78 23 c278 80 479 281 559 559 l23 78 0 1895 0 1895 -23 78 c-67 234 -216 409
-433 511 -163 77 27 71 -2074 73 -1534 1 -1892 -1 -1945 -12z m3781 -295 c83
-15 189 -72 253 -136 64 -64 121 -170 136 -253 6 -29 10 -175 10 -322 l0 -269
-2260 0 -2260 0 0 269 c0 147 4 293 10 322 16 85 72 188 137 253 63 62 168
120 243 135 65 13 3664 14 3731 1z m399 -2669 c0 -882 -4 -1408 -10 -1442 -34
-185 -204 -355 -389 -389 -74 -14 -3648 -14 -3722 0 -185 34 -355 204 -389
389 -6 34 -10 560 -10 1442 l0 1389 2260 0 2260 0 0 -1389z"/>
<path d="M745 4469 c-68 -19 -115 -108 -95 -179 26 -90 66 -110 227 -110 100
0 123 3 151 20 100 61 95 204 -8 258 -38 19 -59 22 -145 21 -55 0 -114 -5
-130 -10z"/>
<path d="M1453 4461 c-61 -29 -85 -71 -80 -144 3 -51 8 -62 40 -95 l37 -37
129 -3 c106 -3 136 0 165 13 98 47 105 191 13 259 -25 18 -45 21 -145 24 -99
2 -123 0 -159 -17z"/>
<path d="M2199 4471 c-48 -15 -69 -32 -89 -71 -37 -73 -17 -153 49 -197 31
-21 46 -23 161 -23 116 0 130 2 161 23 44 29 74 100 65 151 -9 48 -59 103
-104 116 -43 11 -205 12 -243 1z"/>
<path d="M1375 2856 c-16 -7 -41 -26 -55 -40 -24 -26 -25 -34 -28 -164 -3
-130 -2 -139 20 -172 63 -95 194 -90 252 10 25 42 33 172 17 251 -22 103 -115
155 -206 115z"/>
<path d="M3625 2856 c-54 -24 -83 -68 -90 -142 -21 -188 26 -289 136 -301 55
-5 105 19 137 67 22 33 23 42 20 172 -3 129 -4 138 -28 164 -47 51 -115 66
-175 40z"/>
<path d="M2453 2265 c-124 -27 -265 -129 -279 -201 -10 -54 4 -101 41 -139 60
-59 139 -59 214 0 90 72 175 71 269 -5 129 -104 304 22 237 170 -32 71 -156
151 -274 176 -80 17 -127 17 -208 -1z"/>
</g>
</svg>
